<?xml version="1.0" standalone="no"?>
<!DOCTYPE svg PUBLIC "-//W3C//DTD SVG 20010904//EN"
 "http://www.w3.org/TR/2001/REC-SVG-20010904/DTD/svg10.dtd">
<svg version="1.0" xmlns="http://www.w3.org/2000/svg"
 width="1459.000000pt" height="1459.000000pt" viewBox="0 0 1459.000000 1459.000000"
 preserveAspectRatio="xMidYMid meet">
<metadata>
Created by potrace 1.14, written by Peter Selinger 2001-2017
</metadata>
<g transform="translate(0.000000,1459.000000) scale(0.100000,-0.100000)"
fill="#000000" stroke="none">
<path d="M4111 11889 c33 -30 105 -95 224 -200 128 -113 477 -390 750 -595
553 -416 1234 -869 1635 -1087 l55 -30 -66 61 c-328 305 -1141 932 -1629 1257
-41 28 -77 52 -80 55 -10 11 -379 249 -520 337 -145 89 -231 140 -345 203
l-60 33 36 -34z"/>
<path d="M10225 11782 c-557 -328 -1280 -830 -1855 -1289 -97 -77 -253 -203
-281 -227 -19 -17 -49 -42 -65 -55 -60 -50 -171 -148 -224 -199 l-55 -53 65
37 c119 68 304 177 355 209 716 458 1147 766 1738 1238 261 209 547 457 527
457 -3 0 -95 -53 -205 -118z"/>
<path d="M1687 11134 c-1 -1 -31 -4 -67 -8 -36 -3 -76 -8 -90 -11 -14 -2 -38
-7 -55 -11 -107 -21 -253 -96 -331 -171 -143 -135 -203 -293 -199 -524 2 -68
6 -140 9 -159 39 -205 87 -374 151 -535 5 -11 21 -52 36 -92 39 -99 127 -297
208 -466 471 -987 652 -1322 910 -1687 172 -243 356 -444 508 -552 229 -165
361 -193 618 -132 6 1 39 11 75 23 35 11 65 19 67 17 2 -1 -17 -17 -41 -34
-69 -50 -248 -233 -326 -334 -177 -228 -325 -492 -402 -718 -24 -72 -38 -124
-63 -242 -18 -84 -25 -307 -13 -433 27 -285 182 -646 382 -890 69 -84 227
-244 306 -309 76 -63 244 -186 254 -186 3 0 24 -13 48 -29 252 -167 704 -321
1038 -355 30 -4 78 -8 105 -11 59 -7 335 -7 385 -1 19 3 60 7 91 11 31 3 65 7
75 9 24 4 80 14 119 20 66 12 286 76 375 111 107 41 283 126 276 132 -2 3 -13
0 -24 -6 -36 -19 -232 -81 -335 -106 -235 -56 -396 -73 -652 -69 -204 3 -231
5 -325 19 -900 133 -1673 710 -1898 1417 -80 249 -95 497 -46 733 8 39 17 80
20 93 18 86 106 307 177 442 146 278 291 478 471 653 116 112 169 149 271 190
79 31 168 70 495 218 101 46 684 337 895 447 434 226 560 293 655 346 30 17
90 49 132 71 42 22 75 41 74 43 -2 1 -52 -21 -112 -49 -60 -28 -140 -66 -179
-84 -38 -18 -115 -54 -170 -80 -55 -26 -156 -73 -225 -105 -69 -32 -161 -74
-205 -95 -67 -31 -172 -79 -470 -214 -629 -287 -1166 -493 -1390 -537 -48 -9
-160 -10 -195 -2 -55 13 -159 68 -235 126 -331 248 -676 767 -1090 1637 -69
145 -143 298 -220 460 -257 539 -397 909 -433 1150 -4 28 -7 106 -7 175 0 107
3 134 24 189 36 99 83 163 164 224 66 50 196 97 312 113 70 9 370 12 425 3 25
-4 77 -10 115 -13 76 -7 148 -15 181 -21 12 -2 48 -7 80 -10 33 -4 68 -9 79
-11 11 -3 38 -6 60 -9 64 -7 361 -50 415 -60 14 -3 39 -7 55 -10 17 -2 80 -14
140 -25 61 -12 119 -23 130 -24 30 -5 134 -25 180 -36 22 -5 121 -28 220 -50
99 -23 194 -45 210 -50 17 -5 82 -23 145 -40 363 -97 853 -271 1160 -412 234
-108 554 -276 680 -357 40 -26 63 -40 90 -55 14 -8 83 -53 154 -100 71 -47
130 -85 132 -83 1 1 -57 46 -129 100 -73 54 -138 102 -144 108 -43 34 -417
269 -429 269 -2 0 -21 10 -42 23 -86 54 -407 219 -549 283 -501 224 -1146 427
-1722 544 -58 12 -107 23 -110 25 -3 1 -24 6 -46 9 -22 3 -62 11 -90 16 -93
18 -110 21 -390 64 -154 24 -307 47 -340 50 -33 4 -73 9 -90 11 -133 20 -231
27 -368 29 -70 1 -129 1 -130 0z"/>
<path d="M12678 11135 c-2 -1 -50 -5 -108 -9 -58 -3 -116 -8 -130 -10 -14 -3
-50 -7 -80 -10 -47 -5 -105 -13 -300 -42 -19 -3 -46 -7 -60 -10 -14 -2 -43 -6
-65 -9 -33 -4 -222 -35 -300 -49 -39 -8 -240 -46 -260 -50 -11 -3 -65 -14
-120 -26 -290 -60 -674 -164 -960 -258 -169 -56 -481 -172 -570 -212 -22 -10
-83 -37 -135 -60 -264 -116 -650 -327 -906 -495 -137 -91 -384 -271 -384 -281
0 -2 40 22 88 55 735 494 1579 836 2637 1070 92 20 375 76 430 85 17 2 50 8
75 11 25 4 54 9 65 11 54 11 417 64 475 70 25 2 56 6 70 9 14 2 45 7 70 10 25
3 65 7 90 10 98 12 148 17 220 24 86 9 380 6 425 -4 163 -35 235 -62 310 -119
61 -45 119 -123 150 -201 26 -63 29 -84 31 -200 3 -146 -19 -276 -77 -459 -28
-92 -121 -338 -154 -411 -7 -16 -31 -70 -53 -120 -61 -138 -155 -336 -426
-900 -418 -867 -784 -1388 -1121 -1593 -180 -110 -310 -103 -710 40 -250 90
-763 304 -1073 449 -46 21 -86 39 -87 39 -5 0 -348 158 -509 234 -65 31 -119
56 -121 56 -1 0 -56 25 -121 56 -439 209 -584 271 -379 164 44 -23 94 -50 110
-59 36 -22 226 -122 620 -328 441 -231 978 -491 1300 -630 169 -73 227 -114
385 -273 160 -160 299 -354 424 -592 108 -204 193 -428 211 -555 3 -21 8 -45
11 -52 8 -24 18 -160 18 -246 -2 -551 -332 -1086 -899 -1458 -196 -128 -437
-241 -652 -305 -118 -35 -179 -52 -207 -58 -269 -53 -372 -63 -611 -59 -115 2
-226 6 -245 9 -19 3 -55 8 -80 11 -136 18 -350 70 -505 125 -124 44 -125 44
-40 -1 112 -59 254 -117 355 -145 113 -31 243 -63 275 -68 22 -3 49 -7 60 -10
12 -2 45 -7 75 -10 30 -4 73 -9 95 -11 56 -7 357 -7 397 -1 18 3 57 8 87 11
212 20 459 83 681 172 701 281 1217 844 1341 1464 31 155 33 451 4 588 -63
298 -210 603 -432 899 -107 143 -289 329 -391 401 -18 13 -31 25 -29 27 2 2
37 -8 78 -22 104 -35 225 -63 297 -68 382 -25 833 421 1322 1310 66 118 265
516 405 809 32 66 86 179 120 250 296 616 412 970 420 1276 8 293 -109 511
-341 634 -56 30 -183 71 -245 80 -24 3 -56 8 -70 11 -28 5 -266 13 -271 9z"/>
<path d="M7248 9945 c-2 -1 -28 -5 -59 -8 -292 -31 -537 -344 -594 -757 -3
-25 -8 -57 -10 -71 -21 -125 -33 -523 -21 -679 2 -25 7 -92 10 -150 9 -145 19
-258 31 -355 2 -16 7 -57 10 -90 3 -33 9 -76 12 -95 3 -19 6 -51 8 -70 2 -33
30 -259 40 -325 4 -30 8 -61 25 -205 10 -85 18 -149 25 -217 3 -27 8 -64 10
-83 3 -19 7 -55 10 -80 3 -25 7 -63 10 -85 3 -22 8 -62 10 -90 3 -27 7 -61 10
-75 2 -14 6 -54 10 -90 3 -36 8 -76 10 -90 2 -14 7 -50 11 -80 3 -30 8 -66 9
-80 2 -14 6 -54 10 -90 4 -36 8 -72 10 -80 2 -8 7 -40 10 -70 5 -50 18 -158
30 -250 3 -19 21 -163 40 -320 20 -157 38 -298 40 -315 3 -16 7 -46 9 -65 2
-19 18 -145 36 -280 17 -135 34 -261 36 -280 2 -19 6 -48 9 -65 4 -34 35 -264
40 -310 6 -51 17 -118 25 -160 9 -40 5 88 -5 180 -2 22 -7 81 -10 130 -3 50
-7 110 -10 135 -3 25 -7 81 -10 125 -4 44 -8 96 -10 115 -2 19 -7 73 -11 120
-3 47 -7 101 -9 120 -2 19 -6 78 -10 130 -4 52 -9 102 -10 110 -2 8 -6 60 -10
115 -4 55 -8 116 -10 135 -2 19 -6 73 -10 120 -4 47 -8 95 -10 108 -2 13 -7
67 -10 119 -4 53 -8 105 -10 114 -2 10 -6 58 -10 106 -3 48 -8 99 -10 113 -2
14 -7 66 -10 115 -3 50 -8 101 -10 115 -2 14 -7 59 -10 100 -3 41 -8 91 -10
110 -3 19 -7 69 -11 110 -10 121 -12 141 -19 215 -3 39 -8 86 -10 105 -5 39
-13 126 -19 210 -5 60 -24 251 -31 315 -3 22 -7 60 -10 85 -2 25 -6 65 -9 90
-3 25 -8 65 -10 90 -4 41 -7 67 -21 205 -2 22 -7 74 -11 115 -3 41 -8 91 -10
110 -12 126 -19 310 -19 540 0 312 7 408 46 600 28 140 27 135 69 226 106 228
241 334 425 334 314 1 500 -254 550 -755 12 -115 5 -564 -10 -685 -3 -19 -7
-77 -10 -128 -4 -50 -8 -100 -10 -110 -1 -9 -6 -53 -9 -97 -4 -44 -9 -100 -12
-125 -6 -61 -11 -110 -19 -200 -4 -41 -8 -86 -10 -100 -2 -14 -7 -59 -10 -100
-3 -41 -8 -86 -10 -100 -2 -14 -7 -63 -10 -110 -4 -47 -9 -98 -11 -115 -2 -16
-6 -64 -9 -105 -3 -41 -8 -91 -10 -110 -3 -19 -7 -69 -10 -110 -3 -41 -8 -91
-10 -110 -2 -19 -6 -69 -10 -110 -3 -41 -8 -91 -10 -110 -2 -19 -7 -73 -10
-120 -3 -47 -8 -101 -10 -120 -2 -19 -7 -69 -10 -110 -3 -41 -8 -95 -10 -120
-8 -90 -15 -166 -20 -235 -4 -38 -8 -92 -11 -120 -5 -48 -6 -70 -19 -238 -3
-43 -8 -97 -10 -120 -5 -64 -17 -205 -30 -372 -3 -44 -8 -102 -10 -130 -5 -48
-10 -114 -20 -255 -3 -36 -7 -90 -10 -120 -3 -30 -7 -89 -10 -130 -7 -107 -16
-229 -20 -270 -9 -83 -17 -235 -12 -230 2 3 8 37 11 76 4 39 9 82 11 95 3 13
7 44 10 69 3 25 10 74 15 110 5 36 12 92 16 125 7 65 8 75 18 150 4 28 9 68
12 90 2 22 9 72 14 110 5 39 12 90 15 115 3 25 14 115 25 200 11 85 22 180 25
210 3 30 7 65 10 78 2 13 7 53 10 90 3 37 8 74 10 82 2 8 7 40 10 70 3 30 7
71 10 90 3 19 7 60 10 90 3 30 8 64 10 75 2 11 7 47 10 80 4 33 8 74 10 90 2
17 7 53 10 80 4 28 8 61 10 75 2 14 6 55 10 92 3 37 7 75 9 85 2 10 7 52 11
93 4 41 9 82 10 90 2 8 6 44 9 80 4 36 9 76 11 90 3 14 7 50 10 80 2 30 7 66
9 80 3 14 7 57 11 95 3 39 8 84 10 100 9 66 26 212 30 250 2 22 6 63 10 90 12
95 25 200 30 250 3 28 8 66 10 85 16 129 35 295 40 350 4 36 8 76 10 90 2 14
6 57 10 95 3 39 8 86 10 105 33 309 38 752 11 910 -3 14 -10 54 -16 90 -33
184 -123 381 -228 495 -78 85 -210 162 -307 180 -77 14 -162 24 -167 20z"/>
<path d="M7110 3830 c0 -5 5 -10 11 -10 5 0 7 5 4 10 -3 6 -8 10 -11 10 -2 0
-4 -4 -4 -10z"/>
</g>
</svg>
